<?xml version="1.0" encoding="utf-8"?>
<!-- Generator: Adobe Illustrator 20.0.0, SVG Export Plug-In . SVG Version: 6.00 Build 0)  -->
<!DOCTYPE svg PUBLIC "-//W3C//DTD SVG 1.1//EN" "http://www.w3.org/Graphics/SVG/1.1/DTD/svg11.dtd">
<svg version="1.1" id="Layer_1" xmlns="http://www.w3.org/2000/svg" xmlns:xlink="http://www.w3.org/1999/xlink" x="0px" y="0px"
	 viewBox="0 0 324 459" style="enable-background:new 0 0 324 459;" xml:space="preserve">
<style type="text/css">
	.st0{fill:url(#SVGID_1_);stroke:#808080;stroke-width:4;stroke-miterlimit:10;}
	.st1{fill:#FFFFFF;stroke:#808080;stroke-width:4;stroke-miterlimit:10;}
	.st2{fill:#FFFFFF;}
	.st3{fill:#808080;}
	.st4{fill:none;stroke:#808080;stroke-width:4;stroke-linecap:round;stroke-linejoin:round;stroke-miterlimit:10;}
</style>
<g>
	
		<linearGradient id="SVGID_1_" gradientUnits="userSpaceOnUse" x1="61.985" y1="109.5" x2="421.985" y2="109.5" gradientTransform="matrix(6.123234e-17 1 -1 6.123234e-17 272.015 -11.985)">
		<stop  offset="0" style="stop-color:#F9A538"/>
		<stop  offset="1" style="stop-color:#FF4F94"/>
	</linearGradient>
	<path class="st0" d="M50,400V60c0-5.5,4.5-10,10-10h205c5.5,0,10,4.5,10,10v340c0,5.5-4.5,10-10,10H60C54.5,410,50,405.5,50,400z"
		/>
	<path class="st1" d="M230.1,50c0,0-140.2,0-145.1,0H58c-5,0-9,4-9,9v342c0,5,4,9,9,9h27c5,0,145.1,0,145.1,0V50z M70,200V70h138.7
		v130H70z M70,370c0-11,9-20,20-20c11,0,20,9,20,20s-9,20-20,20C79,390,70,381,70,370z"/>
	<g>
		<path class="st2" d="M72.2,199.5c-1.1,0-2-0.9-2-2V71.8c0-0.6,0.3-1.2,0.7-1.5c0.4-0.3,0.8-0.5,1.3-0.5c0.1,0,0.3,0,0.4,0
			c3,0.6,18.1,3.6,21.3,6.3c3.6,3.1,11.8,22.3,11.8,27.8c0,3.6,6.6,8.9,9.5,10.3c0,0,0.1,0,0.1,0c1.4,0,4.7-1.4,7.4-2.5
			c2.1-0.9,3.7-1.5,4.9-1.9c-0.1-0.4-0.1-0.7-0.1-1.1c0-1.2,0.5-3.9,4.7-3.9c0.7,0,3.5-0.6,5.7-1.2c0.4-0.1,4.4-1.4,6.7-1.4
			c0.1,0,0.2,0,0.3,0c1.7,0.2,4,0.6,4.7,2.7c0.1,0,0.2,0,0.3,0c2.2,0,5.7-0.5,5.7-0.5c0.1,0,3.4-0.5,7.4-0.5c7,0,11.5,1.6,13.4,4.7
			c3.1,1.2,4.4,3.1,5.6,4.9c0.3,0.5,0.7,1,1,1.4c0.9,0.5,2.1,1.9,3.4,5.6c0.7,2,2,6.1,2.4,11.3c0,0,0,0.1,0,0.1v5.1c0,0,0,0.1,0,0.1
			c-0.4,5.2-1.6,9.3-2.4,11.3c-1.4,3.7-2.5,5.1-3.4,5.6c-0.4,0.5-0.7,0.9-1,1.4c-1.2,1.7-2.5,3.7-5.6,4.9c-1.9,3.1-6.4,4.7-13.4,4.7
			c0,0,0,0,0,0c-3.9,0-7.2-0.5-7.3-0.5c0,0-3.5-0.5-5.7-0.5c-0.1,0-0.2,0-0.3,0c-0.7,2.1-3.1,2.5-4.7,2.7c-0.1,0-0.2,0-0.3,0
			c-2.3,0-6.3-1.2-6.8-1.4c-2.1-0.6-4.9-1.2-5.6-1.2c-4.1,0-4.7-2.5-4.7-3.9c0-0.3,0.1-0.7,0.1-1.1c-1.3-0.4-2.9-1-4.9-1.9
			c-2.6-1.1-5.9-2.5-7.4-2.5c-0.1,0-0.1,0-0.1,0c-3,1.4-9.5,6.7-9.5,10.3c0,5.5-8.1,24.8-11.8,27.8c-2.7,2.3-13,4.7-21.1,6.3l-0.1,0
			C72.5,199.5,72.4,199.5,72.2,199.5z"/>
		<path class="st3" d="M72.2,71.8c0,0,17.4,3.3,20.4,5.9c3,2.6,11.1,21.2,11.1,26.3c0,5.1,8,10.9,10.8,12.2c0.2,0.1,0.5,0.2,0.9,0.2
			c3.5,0,11.8-4.8,14.4-4.8c0.2,0,0.3,0,0.4,0.1c0-0.2-0.7-2.1-0.7-2.8c0-1.3,0.7-1.9,2.7-1.9c1.4,0,6.2-1.3,6.2-1.3
			s4.1-1.3,6.2-1.3c2.8,0.4,3.2,0.9,3.2,2.2c0,0.4,0.9,0.6,2.1,0.6c2.4,0,6-0.6,6-0.6s3.2-0.5,7-0.5c4.8,0,10.5,0.8,12,4.3
			c4.1,1.3,4.7,3.8,6.8,6.4c1.2,0,4.4,7.1,5,15.3v5.1c-0.6,8.2-3.8,15.3-5,15.3c-2.1,2.5-2.7,5.1-6.8,6.4c-1.5,3.6-7.2,4.3-12,4.3
			c-3.8,0-7-0.5-7-0.5s-3.6-0.6-6-0.6c-1.2,0-2.1,0.1-2.1,0.6c0,1.3-0.5,1.8-3.2,2.2c-2.1,0-6.2-1.3-6.2-1.3s-4.8-1.3-6.2-1.3
			c-2.1,0-2.7-0.6-2.7-1.9c0-0.6,0.7-2.6,0.7-2.7c-0.1,0-0.3,0.1-0.4,0.1c-2.6,0-10.9-4.8-14.4-4.8c-0.4,0-0.7,0.1-0.9,0.2
			c-2.7,1.3-10.8,7.1-10.8,12.2c0,5.1-8.1,23.8-11.1,26.3c-3,2.6-20.4,5.9-20.4,5.9v-60.7V71.8 M72.2,67.8c-0.9,0-1.8,0.3-2.5,0.9
			c-0.9,0.8-1.5,1.9-1.5,3.1v65v60.7c0,2.2,1.8,4,4,4c0.3,0,0.6,0,0.9-0.1l0.1,0c18.4-3.7,21.2-6,22-6.7
			c4.1-3.5,12.5-23.2,12.5-29.4c0-2.2,4.9-6.7,8-8.3c1.3,0.2,4.5,1.6,6.3,2.3c1.4,0.6,2.6,1.1,3.6,1.5c0.1,2.8,1.9,5.6,6.7,5.6
			c0.7,0.1,3.2,0.6,5.1,1.1c1,0.3,4.8,1.4,7.3,1.4c0.2,0,0.4,0,0.6,0c1.4-0.2,4.2-0.6,5.7-2.7c1.7,0.1,3.8,0.4,4.5,0.5
			c0.1,0,3.6,0.6,7.7,0.6c7.4,0,12.3-1.7,14.7-5.1c3.2-1.4,4.7-3.6,5.9-5.4c0.3-0.4,0.5-0.7,0.7-1.1c1.5-1,2.7-3.1,3.9-6.4
			c0.8-2.1,2.1-6.4,2.5-11.8c0-0.1,0-0.2,0-0.3v-5.1c0-0.1,0-0.2,0-0.3c-0.4-5.4-1.7-9.7-2.5-11.8c-1.2-3.3-2.4-5.3-3.9-6.4
			c-0.3-0.3-0.5-0.7-0.7-1.1c-1.2-1.8-2.7-3.9-5.9-5.4c-2.4-3.4-7.4-5.1-14.7-5.1c-4.1,0-7.5,0.5-7.7,0.6c-0.8,0.1-2.9,0.4-4.6,0.5
			c-1.5-2.1-4.4-2.5-5.6-2.7c-0.2,0-0.4,0-0.6,0c-2.5,0-6.3,1.2-7.3,1.5c-2.1,0.6-4.5,1.1-5.1,1.1c-4.8,0-6.6,2.8-6.7,5.6
			c-1,0.4-2.2,0.9-3.6,1.5c-1.8,0.7-4.9,2.1-6.3,2.3c-3.1-1.7-8-6.2-8-8.3c0-6.1-8.4-25.9-12.5-29.4c-3.3-2.8-15.4-5.4-22.3-6.8
			C72.7,67.9,72.5,67.8,72.2,67.8L72.2,67.8z M149.3,166.3C149.3,166.3,149.3,166.3,149.3,166.3
			C149.3,166.3,149.3,166.3,149.3,166.3L149.3,166.3z"/>
	</g>
	<path class="st3" d="M195,385V225c0-2.8,2.2-5,5-5l0,0c2.8,0,5,2.2,5,5v160c0,2.8-2.2,5-5,5l0,0C197.3,390,195,387.8,195,385z"/>
	<g>
		<path class="st2" d="M247.5,292c-3.9,0-7-3.1-7-7V175c0-3.9,3.1-7,7-7h10c3.9,0,7,3.1,7,7v110c0,3.9-3.1,7-7,7H247.5z"/>
		<path class="st3" d="M257.5,170c2.8,0,5,2.2,5,5v110c0,2.8-2.2,5-5,5h-10c-2.8,0-5-2.2-5-5V175c0-2.8,2.2-5,5-5H257.5 M257.5,166
			h-10c-5,0-9,4-9,9v110c0,5,4,9,9,9h10c5,0,9-4,9-9V175C266.5,170,262.5,166,257.5,166L257.5,166z"/>
	</g>
	<g>
		<path class="st2" d="M252.5,92.6c-3.9,0-7-3.1-7-7V75c0-3.9,3.1-7,7-7s7,3.1,7,7v10.6C259.5,89.4,256.4,92.6,252.5,92.6z"/>
		<path class="st3" d="M252.5,70c2.8,0,5,2.2,5,5v10.6c0,2.8-2.2,5-5,5s-5-2.2-5-5V75C247.5,72.2,249.8,70,252.5,70 M252.5,66
			c-5,0-9,4-9,9v10.6c0,5,4,9,9,9s9-4,9-9V75C261.5,70,257.5,66,252.5,66L252.5,66z"/>
	</g>
	<g>
		<path class="st2" d="M252.5,392.6c-3.9,0-7-3.1-7-7V375c0-3.9,3.1-7,7-7s7,3.1,7,7v10.6C259.5,389.4,256.4,392.6,252.5,392.6z"/>
		<path class="st3" d="M252.5,370c2.8,0,5,2.2,5,5v10.6c0,2.8-2.2,5-5,5s-5-2.2-5-5V375C247.5,372.2,249.8,370,252.5,370 M252.5,366
			c-5,0-9,4-9,9v10.6c0,5,4,9,9,9s9-4,9-9V375C261.5,370,257.5,366,252.5,366L252.5,366z"/>
	</g>
	<path class="st3" d="M175,320v-95c0-2.8,2.2-5,5-5l0,0c2.8,0,5,2.2,5,5v95c0,2.8-2.2,5-5,5l0,0C177.3,325,175,322.8,175,320z"/>
	<path class="st3" d="M155,345V225c0-2.8,2.2-5,5-5l0,0c2.8,0,5,2.2,5,5v120c0,2.8-2.2,5-5,5l0,0C157.3,350,155,347.8,155,345z"/>
	<path class="st3" d="M115,255v-30c0-2.8,2.2-5,5-5h0c2.8,0,5,2.2,5,5v30c0,2.8-2.2,5-5,5h0C117.3,260,115,257.8,115,255z"/>
	<path class="st3" d="M95,305v-80c0-2.8,2.2-5,5-5h0c2.8,0,5,2.2,5,5v80c0,2.8-2.2,5-5,5h0C97.3,310,95,307.8,95,305z"/>
	<path class="st3" d="M115,315v-30c0-2.8,2.2-5,5-5h0c2.8,0,5,2.2,5,5v30c0,2.8-2.2,5-5,5h0C117.3,320,115,317.8,115,315z"/>
	<path class="st3" d="M75,285v-60c0-2.8,2.2-5,5-5h0c2.8,0,5,2.2,5,5v60c0,2.8-2.2,5-5,5h0C77.3,290,75,287.8,75,285z"/>
</g>
<line class="st4" x1="2" y1="62" x2="2" y2="2"/>
<line class="st4" x1="62" y1="2" x2="2" y2="2"/>
<line class="st4" x1="262" y1="2" x2="322" y2="2"/>
<line class="st4" x1="322" y1="62" x2="322" y2="2"/>
<line class="st4" x1="322" y1="397" x2="322" y2="457"/>
<line class="st4" x1="262" y1="457" x2="322" y2="457"/>
<line class="st4" x1="62" y1="457" x2="2" y2="457"/>
<line class="st4" x1="2" y1="397" x2="2" y2="457"/>
</svg>
